<svg width="1440" height="110" viewBox="0 0 1440 110" fill="none" xmlns="http://www.w3.org/2000/svg">
<path d="M93.4 47.96V62H89.98V56.22H84.66V62H81.24V47.96H84.66V53.46H89.98V47.96H93.4ZM106.389 56.24C106.389 56.56 106.369 56.8933 106.329 57.24H98.5889C98.6422 57.9333 98.8622 58.4667 99.2489 58.84C99.6489 59.2 100.136 59.38 100.709 59.38C101.562 59.38 102.156 59.02 102.489 58.3H106.129C105.942 59.0333 105.602 59.6933 105.109 60.28C104.629 60.8667 104.022 61.3267 103.289 61.66C102.556 61.9933 101.736 62.16 100.829 62.16C99.7356 62.16 98.7622 61.9267 97.9089 61.46C97.0556 60.9933 96.3889 60.3267 95.9089 59.46C95.4289 58.5933 95.1889 57.58 95.1889 56.42C95.1889 55.26 95.4222 54.2467 95.8889 53.38C96.3689 52.5133 97.0356 51.8467 97.8889 51.38C98.7422 50.9133 99.7222 50.68 100.829 50.68C101.909 50.68 102.869 50.9067 103.709 51.36C104.549 51.8133 105.202 52.46 105.669 53.3C106.149 54.14 106.389 55.12 106.389 56.24ZM102.889 55.34C102.889 54.7533 102.689 54.2867 102.289 53.94C101.889 53.5933 101.389 53.42 100.789 53.42C100.216 53.42 99.7289 53.5867 99.3289 53.92C98.9422 54.2533 98.7022 54.7267 98.6089 55.34H102.889ZM111.613 47.2V62H108.193V47.2H111.613ZM117.512 47.2V62H114.092V47.2H117.512ZM125.07 62.16C123.977 62.16 122.99 61.9267 122.11 61.46C121.243 60.9933 120.557 60.3267 120.05 59.46C119.557 58.5933 119.31 57.58 119.31 56.42C119.31 55.2733 119.563 54.2667 120.07 53.4C120.577 52.52 121.27 51.8467 122.15 51.38C123.03 50.9133 124.017 50.68 125.11 50.68C126.203 50.68 127.19 50.9133 128.07 51.38C128.95 51.8467 129.643 52.52 130.15 53.4C130.657 54.2667 130.91 55.2733 130.91 56.42C130.91 57.5667 130.65 58.58 130.13 59.46C129.623 60.3267 128.923 60.9933 128.03 61.46C127.15 61.9267 126.163 62.16 125.07 62.16ZM125.07 59.2C125.723 59.2 126.277 58.96 126.73 58.48C127.197 58 127.43 57.3133 127.43 56.42C127.43 55.5267 127.203 54.84 126.75 54.36C126.31 53.88 125.763 53.64 125.11 53.64C124.443 53.64 123.89 53.88 123.45 54.36C123.01 54.8267 122.79 55.5133 122.79 56.42C122.79 57.3133 123.003 58 123.43 58.48C123.87 58.96 124.417 59.2 125.07 59.2ZM156.283 47.96L152.623 62H148.483L146.243 52.76L143.923 62H139.783L136.223 47.96H139.883L141.903 58.18L144.403 47.96H148.163L150.563 58.18L152.603 47.96H156.283ZM163.078 62.16C161.984 62.16 160.998 61.9267 160.118 61.46C159.251 60.9933 158.564 60.3267 158.058 59.46C157.564 58.5933 157.318 57.58 157.318 56.42C157.318 55.2733 157.571 54.2667 158.078 53.4C158.584 52.52 159.278 51.8467 160.158 51.38C161.038 50.9133 162.024 50.68 163.118 50.68C164.211 50.68 165.198 50.9133 166.078 51.38C166.958 51.8467 167.651 52.52 168.158 53.4C168.664 54.2667 168.918 55.2733 168.918 56.42C168.918 57.5667 168.658 58.58 168.138 59.46C167.631 60.3267 166.931 60.9933 166.038 61.46C165.158 61.9267 164.171 62.16 163.078 62.16ZM163.078 59.2C163.731 59.2 164.284 58.96 164.738 58.48C165.204 58 165.438 57.3133 165.438 56.42C165.438 55.5267 165.211 54.84 164.758 54.36C164.318 53.88 163.771 53.64 163.118 53.64C162.451 53.64 161.898 53.88 161.458 54.36C161.018 54.8267 160.798 55.5133 160.798 56.42C160.798 57.3133 161.011 58 161.438 58.48C161.878 58.96 162.424 59.2 163.078 59.2ZM174.152 52.7C174.552 52.0867 175.052 51.6067 175.652 51.26C176.252 50.9 176.919 50.72 177.652 50.72V54.34H176.712C175.859 54.34 175.219 54.5267 174.792 54.9C174.366 55.26 174.152 55.9 174.152 56.82V62H170.732V50.84H174.152V52.7ZM182.707 47.2V62H179.287V47.2H182.707ZM184.505 56.4C184.505 55.2533 184.719 54.2467 185.145 53.38C185.585 52.5133 186.179 51.8467 186.925 51.38C187.672 50.9133 188.505 50.68 189.425 50.68C190.159 50.68 190.825 50.8333 191.425 51.14C192.039 51.4467 192.519 51.86 192.865 52.38V47.2H196.285V62H192.865V60.4C192.545 60.9333 192.085 61.36 191.485 61.68C190.899 62 190.212 62.16 189.425 62.16C188.505 62.16 187.672 61.9267 186.925 61.46C186.179 60.98 185.585 60.3067 185.145 59.44C184.719 58.56 184.505 57.5467 184.505 56.4ZM192.865 56.42C192.865 55.5667 192.625 54.8933 192.145 54.4C191.679 53.9067 191.105 53.66 190.425 53.66C189.745 53.66 189.165 53.9067 188.685 54.4C188.219 54.88 187.985 55.5467 187.985 56.4C187.985 57.2533 188.219 57.9333 188.685 58.44C189.165 58.9333 189.745 59.18 190.425 59.18C191.105 59.18 191.679 58.9333 192.145 58.44C192.625 57.9467 192.865 57.2733 192.865 56.42Z" fill="black"/>
<path d="M919.596 49.742V59.5H918.322V55.076H913.352V59.5H912.078V49.742H913.352V54.026H918.322V49.742H919.596ZM925.117 59.626C924.399 59.626 923.745 59.4627 923.157 59.136C922.579 58.8093 922.121 58.3473 921.785 57.75C921.459 57.1433 921.295 56.4433 921.295 55.65C921.295 54.866 921.463 54.1753 921.799 53.578C922.145 52.9713 922.611 52.5093 923.199 52.192C923.787 51.8653 924.445 51.702 925.173 51.702C925.901 51.702 926.559 51.8653 927.147 52.192C927.735 52.5093 928.197 52.9667 928.533 53.564C928.879 54.1613 929.051 54.8567 929.051 55.65C929.051 56.4433 928.874 57.1433 928.519 57.75C928.174 58.3473 927.703 58.8093 927.105 59.136C926.508 59.4627 925.845 59.626 925.117 59.626ZM925.117 58.506C925.575 58.506 926.004 58.3987 926.405 58.184C926.807 57.9693 927.129 57.6473 927.371 57.218C927.623 56.7887 927.749 56.266 927.749 55.65C927.749 55.034 927.628 54.5113 927.385 54.082C927.143 53.6527 926.825 53.3353 926.433 53.13C926.041 52.9153 925.617 52.808 925.159 52.808C924.693 52.808 924.263 52.9153 923.871 53.13C923.489 53.3353 923.181 53.6527 922.947 54.082C922.714 54.5113 922.597 55.034 922.597 55.65C922.597 56.2753 922.709 56.8027 922.933 57.232C923.167 57.6613 923.475 57.9833 923.857 58.198C924.24 58.4033 924.66 58.506 925.117 58.506ZM939.952 51.688C940.55 51.688 941.082 51.814 941.548 52.066C942.015 52.3087 942.384 52.6773 942.654 53.172C942.925 53.6667 943.06 54.2687 943.06 54.978V59.5H941.8V55.16C941.8 54.3947 941.609 53.8113 941.226 53.41C940.853 52.9993 940.344 52.794 939.7 52.794C939.038 52.794 938.51 53.0087 938.118 53.438C937.726 53.858 937.53 54.4693 937.53 55.272V59.5H936.27V55.16C936.27 54.3947 936.079 53.8113 935.696 53.41C935.323 52.9993 934.814 52.794 934.17 52.794C933.508 52.794 932.98 53.0087 932.588 53.438C932.196 53.858 932 54.4693 932 55.272V59.5H930.726V51.828H932V52.934C932.252 52.5327 932.588 52.2247 933.008 52.01C933.438 51.7953 933.909 51.688 934.422 51.688C935.066 51.688 935.636 51.8327 936.13 52.122C936.625 52.4113 936.994 52.836 937.236 53.396C937.451 52.8547 937.806 52.4347 938.3 52.136C938.795 51.8373 939.346 51.688 939.952 51.688ZM952.15 55.37C952.15 55.6127 952.136 55.8693 952.108 56.14H945.976C946.023 56.896 946.28 57.4887 946.746 57.918C947.222 58.338 947.796 58.548 948.468 58.548C949.019 58.548 949.476 58.422 949.84 58.17C950.214 57.9087 950.475 57.5633 950.624 57.134H951.996C951.791 57.8713 951.38 58.4733 950.764 58.94C950.148 59.3973 949.383 59.626 948.468 59.626C947.74 59.626 947.087 59.4627 946.508 59.136C945.939 58.8093 945.491 58.3473 945.164 57.75C944.838 57.1433 944.674 56.4433 944.674 55.65C944.674 54.8567 944.833 54.1613 945.15 53.564C945.468 52.9667 945.911 52.5093 946.48 52.192C947.059 51.8653 947.722 51.702 948.468 51.702C949.196 51.702 949.84 51.8607 950.4 52.178C950.96 52.4953 951.39 52.934 951.688 53.494C951.996 54.0447 952.15 54.67 952.15 55.37ZM950.834 55.104C950.834 54.6187 950.727 54.2033 950.512 53.858C950.298 53.5033 950.004 53.2373 949.63 53.06C949.266 52.8733 948.86 52.78 948.412 52.78C947.768 52.78 947.218 52.9853 946.76 53.396C946.312 53.8067 946.056 54.376 945.99 55.104H950.834Z" fill="black"/>
<path d="M1007.17 59.598C1006.53 59.598 1005.95 59.486 1005.44 59.262C1004.93 59.0287 1004.54 58.7113 1004.25 58.31C1003.96 57.8993 1003.81 57.428 1003.8 56.896H1005.16C1005.2 57.3533 1005.39 57.7407 1005.72 58.058C1006.05 58.366 1006.54 58.52 1007.17 58.52C1007.78 58.52 1008.25 58.3707 1008.6 58.072C1008.95 57.764 1009.13 57.372 1009.13 56.896C1009.13 56.5227 1009.03 56.2193 1008.82 55.986C1008.62 55.7527 1008.36 55.5753 1008.05 55.454C1007.75 55.3327 1007.33 55.202 1006.81 55.062C1006.16 54.894 1005.65 54.726 1005.25 54.558C1004.87 54.39 1004.54 54.1287 1004.26 53.774C1003.99 53.41 1003.85 52.9247 1003.85 52.318C1003.85 51.786 1003.99 51.3147 1004.26 50.904C1004.53 50.4933 1004.91 50.176 1005.39 49.952C1005.89 49.728 1006.45 49.616 1007.09 49.616C1008 49.616 1008.75 49.8447 1009.33 50.302C1009.92 50.7593 1010.25 51.366 1010.32 52.122H1008.92C1008.88 51.7487 1008.68 51.422 1008.33 51.142C1007.99 50.8527 1007.53 50.708 1006.96 50.708C1006.43 50.708 1006 50.848 1005.66 51.128C1005.32 51.3987 1005.16 51.7813 1005.16 52.276C1005.16 52.6307 1005.25 52.92 1005.45 53.144C1005.66 53.368 1005.9 53.5407 1006.19 53.662C1006.49 53.774 1006.91 53.9047 1007.44 54.054C1008.08 54.2313 1008.6 54.4087 1008.99 54.586C1009.38 54.754 1009.72 55.02 1010 55.384C1010.28 55.7387 1010.42 56.224 1010.42 56.84C1010.42 57.316 1010.29 57.764 1010.04 58.184C1009.79 58.604 1009.42 58.9447 1008.92 59.206C1008.43 59.4673 1007.84 59.598 1007.17 59.598ZM1015.64 59.626C1014.92 59.626 1014.27 59.4627 1013.68 59.136C1013.1 58.8093 1012.64 58.3473 1012.31 57.75C1011.98 57.1433 1011.82 56.4433 1011.82 55.65C1011.82 54.866 1011.99 54.1753 1012.32 53.578C1012.67 52.9713 1013.13 52.5093 1013.72 52.192C1014.31 51.8653 1014.97 51.702 1015.7 51.702C1016.42 51.702 1017.08 51.8653 1017.67 52.192C1018.26 52.5093 1018.72 52.9667 1019.06 53.564C1019.4 54.1613 1019.57 54.8567 1019.57 55.65C1019.57 56.4433 1019.4 57.1433 1019.04 57.75C1018.7 58.3473 1018.23 58.8093 1017.63 59.136C1017.03 59.4627 1016.37 59.626 1015.64 59.626ZM1015.64 58.506C1016.1 58.506 1016.53 58.3987 1016.93 58.184C1017.33 57.9693 1017.65 57.6473 1017.89 57.218C1018.15 56.7887 1018.27 56.266 1018.27 55.65C1018.27 55.034 1018.15 54.5113 1017.91 54.082C1017.67 53.6527 1017.35 53.3353 1016.96 53.13C1016.56 52.9153 1016.14 52.808 1015.68 52.808C1015.22 52.808 1014.79 52.9153 1014.39 53.13C1014.01 53.3353 1013.7 53.6527 1013.47 54.082C1013.24 54.5113 1013.12 55.034 1013.12 55.65C1013.12 56.2753 1013.23 56.8027 1013.46 57.232C1013.69 57.6613 1014 57.9833 1014.38 58.198C1014.76 58.4033 1015.18 58.506 1015.64 58.506ZM1022.52 53.256C1022.79 52.7987 1023.17 52.4253 1023.67 52.136C1024.18 51.8467 1024.75 51.702 1025.39 51.702C1026.08 51.702 1026.71 51.8653 1027.26 52.192C1027.81 52.5187 1028.24 52.9807 1028.56 53.578C1028.88 54.166 1029.03 54.852 1029.03 55.636C1029.03 56.4107 1028.88 57.1013 1028.56 57.708C1028.24 58.3147 1027.8 58.786 1027.24 59.122C1026.69 59.458 1026.08 59.626 1025.39 59.626C1024.73 59.626 1024.15 59.4813 1023.64 59.192C1023.15 58.9027 1022.78 58.534 1022.52 58.086V59.5H1021.25V49.14H1022.52V53.256ZM1027.73 55.636C1027.73 55.0573 1027.62 54.5533 1027.38 54.124C1027.15 53.6947 1026.83 53.368 1026.43 53.144C1026.04 52.92 1025.6 52.808 1025.13 52.808C1024.66 52.808 1024.23 52.9247 1023.83 53.158C1023.43 53.382 1023.12 53.7133 1022.87 54.152C1022.64 54.5813 1022.52 55.0807 1022.52 55.65C1022.52 56.2287 1022.64 56.7373 1022.87 57.176C1023.12 57.6053 1023.43 57.9367 1023.83 58.17C1024.23 58.394 1024.66 58.506 1025.13 58.506C1025.6 58.506 1026.04 58.394 1026.43 58.17C1026.83 57.9367 1027.15 57.6053 1027.38 57.176C1027.62 56.7373 1027.73 56.224 1027.73 55.636ZM1031.98 53.074C1032.21 52.6353 1032.53 52.2947 1032.94 52.052C1033.36 51.8093 1033.87 51.688 1034.46 51.688V53.004H1034.13C1032.7 53.004 1031.98 53.7787 1031.98 55.328V59.5H1030.71V51.828H1031.98V53.074ZM1042.93 55.37C1042.93 55.6127 1042.92 55.8693 1042.89 56.14H1036.76C1036.81 56.896 1037.06 57.4887 1037.53 57.918C1038.01 58.338 1038.58 58.548 1039.25 58.548C1039.8 58.548 1040.26 58.422 1040.62 58.17C1041 57.9087 1041.26 57.5633 1041.41 57.134H1042.78C1042.57 57.8713 1042.16 58.4733 1041.55 58.94C1040.93 59.3973 1040.17 59.626 1039.25 59.626C1038.52 59.626 1037.87 59.4627 1037.29 59.136C1036.72 58.8093 1036.27 58.3473 1035.95 57.75C1035.62 57.1433 1035.46 56.4433 1035.46 55.65C1035.46 54.8567 1035.62 54.1613 1035.93 53.564C1036.25 52.9667 1036.69 52.5093 1037.26 52.192C1037.84 51.8653 1038.5 51.702 1039.25 51.702C1039.98 51.702 1040.62 51.8607 1041.18 52.178C1041.74 52.4953 1042.17 52.934 1042.47 53.494C1042.78 54.0447 1042.93 54.67 1042.93 55.37ZM1041.62 55.104C1041.62 54.6187 1041.51 54.2033 1041.3 53.858C1041.08 53.5033 1040.79 53.2373 1040.41 53.06C1040.05 52.8733 1039.64 52.78 1039.2 52.78C1038.55 52.78 1038 52.9853 1037.54 53.396C1037.1 53.8067 1036.84 54.376 1036.77 55.104H1041.62Z" fill="black"/>
<path d="M1099.96 54.474C1100.32 54.53 1100.64 54.6747 1100.93 54.908C1101.23 55.1413 1101.46 55.4307 1101.63 55.776C1101.81 56.1213 1101.9 56.49 1101.9 56.882C1101.9 57.3767 1101.77 57.8247 1101.52 58.226C1101.27 58.618 1100.9 58.9307 1100.41 59.164C1099.94 59.388 1099.37 59.5 1098.72 59.5H1095.08V49.742H1098.58C1099.24 49.742 1099.81 49.854 1100.27 50.078C1100.74 50.2927 1101.09 50.5867 1101.32 50.96C1101.56 51.3333 1101.67 51.7533 1101.67 52.22C1101.67 52.7987 1101.51 53.2793 1101.2 53.662C1100.89 54.0353 1100.48 54.306 1099.96 54.474ZM1096.35 53.956H1098.49C1099.09 53.956 1099.55 53.816 1099.88 53.536C1100.21 53.256 1100.37 52.8687 1100.37 52.374C1100.37 51.8793 1100.21 51.492 1099.88 51.212C1099.55 50.932 1099.08 50.792 1098.47 50.792H1096.35V53.956ZM1098.61 58.45C1099.24 58.45 1099.74 58.3007 1100.09 58.002C1100.44 57.7033 1100.62 57.288 1100.62 56.756C1100.62 56.2147 1100.44 55.79 1100.06 55.482C1099.69 55.1647 1099.19 55.006 1098.56 55.006H1096.35V58.45H1098.61ZM1104.94 49.14V59.5H1103.66V49.14H1104.94ZM1110.46 59.626C1109.74 59.626 1109.08 59.4627 1108.5 59.136C1107.92 58.8093 1107.46 58.3473 1107.12 57.75C1106.8 57.1433 1106.63 56.4433 1106.63 55.65C1106.63 54.866 1106.8 54.1753 1107.14 53.578C1107.48 52.9713 1107.95 52.5093 1108.54 52.192C1109.13 51.8653 1109.78 51.702 1110.51 51.702C1111.24 51.702 1111.9 51.8653 1112.49 52.192C1113.07 52.5093 1113.54 52.9667 1113.87 53.564C1114.22 54.1613 1114.39 54.8567 1114.39 55.65C1114.39 56.4433 1114.21 57.1433 1113.86 57.75C1113.51 58.3473 1113.04 58.8093 1112.44 59.136C1111.85 59.4627 1111.18 59.626 1110.46 59.626ZM1110.46 58.506C1110.91 58.506 1111.34 58.3987 1111.74 58.184C1112.14 57.9693 1112.47 57.6473 1112.71 57.218C1112.96 56.7887 1113.09 56.266 1113.09 55.65C1113.09 55.034 1112.97 54.5113 1112.72 54.082C1112.48 53.6527 1112.16 53.3353 1111.77 53.13C1111.38 52.9153 1110.95 52.808 1110.5 52.808C1110.03 52.808 1109.6 52.9153 1109.21 53.13C1108.83 53.3353 1108.52 53.6527 1108.29 54.082C1108.05 54.5113 1107.94 55.034 1107.94 55.65C1107.94 56.2753 1108.05 56.8027 1108.27 57.232C1108.5 57.6613 1108.81 57.9833 1109.2 58.198C1109.58 58.4033 1110 58.506 1110.46 58.506ZM1119.23 51.702C1119.89 51.702 1120.47 51.8467 1120.96 52.136C1121.47 52.4253 1121.84 52.7893 1122.08 53.228V51.828H1123.37V59.668C1123.37 60.368 1123.22 60.9887 1122.92 61.53C1122.63 62.0807 1122.2 62.51 1121.64 62.818C1121.09 63.126 1120.44 63.28 1119.7 63.28C1118.7 63.28 1117.86 63.042 1117.18 62.566C1116.51 62.09 1116.12 61.4413 1115.99 60.62H1117.25C1117.39 61.0867 1117.68 61.46 1118.12 61.74C1118.56 62.0293 1119.09 62.174 1119.7 62.174C1120.4 62.174 1120.97 61.9547 1121.41 61.516C1121.86 61.0773 1122.08 60.4613 1122.08 59.668V58.058C1121.83 58.506 1121.46 58.8793 1120.96 59.178C1120.47 59.4767 1119.89 59.626 1119.23 59.626C1118.55 59.626 1117.93 59.458 1117.37 59.122C1116.82 58.786 1116.38 58.3147 1116.06 57.708C1115.75 57.1013 1115.59 56.4107 1115.59 55.636C1115.59 54.852 1115.75 54.166 1116.06 53.578C1116.38 52.9807 1116.82 52.5187 1117.37 52.192C1117.93 51.8653 1118.55 51.702 1119.23 51.702ZM1122.08 55.65C1122.08 55.0713 1121.97 54.5673 1121.73 54.138C1121.5 53.7087 1121.18 53.382 1120.78 53.158C1120.39 52.9247 1119.96 52.808 1119.48 52.808C1119 52.808 1118.57 52.92 1118.18 53.144C1117.79 53.368 1117.47 53.6947 1117.24 54.124C1117.01 54.5533 1116.89 55.0573 1116.89 55.636C1116.89 56.224 1117.01 56.7373 1117.24 57.176C1117.47 57.6053 1117.79 57.9367 1118.18 58.17C1118.57 58.394 1119 58.506 1119.48 58.506C1119.96 58.506 1120.39 58.394 1120.78 58.17C1121.18 57.9367 1121.5 57.6053 1121.73 57.176C1121.97 56.7373 1122.08 56.2287 1122.08 55.65Z" fill="black"/>
<path d="M1179.17 59.598C1178.53 59.598 1177.95 59.486 1177.44 59.262C1176.93 59.0287 1176.54 58.7113 1176.25 58.31C1175.96 57.8993 1175.81 57.428 1175.8 56.896H1177.16C1177.2 57.3533 1177.39 57.7407 1177.72 58.058C1178.05 58.366 1178.54 58.52 1179.17 58.52C1179.78 58.52 1180.25 58.3707 1180.6 58.072C1180.95 57.764 1181.13 57.372 1181.13 56.896C1181.13 56.5227 1181.03 56.2193 1180.82 55.986C1180.62 55.7527 1180.36 55.5753 1180.05 55.454C1179.75 55.3327 1179.33 55.202 1178.81 55.062C1178.16 54.894 1177.65 54.726 1177.25 54.558C1176.87 54.39 1176.54 54.1287 1176.26 53.774C1175.99 53.41 1175.85 52.9247 1175.85 52.318C1175.85 51.786 1175.99 51.3147 1176.26 50.904C1176.53 50.4933 1176.91 50.176 1177.39 49.952C1177.89 49.728 1178.45 49.616 1179.09 49.616C1180 49.616 1180.75 49.8447 1181.33 50.302C1181.92 50.7593 1182.25 51.366 1182.32 52.122H1180.92C1180.88 51.7487 1180.68 51.422 1180.33 51.142C1179.99 50.8527 1179.53 50.708 1178.96 50.708C1178.43 50.708 1178 50.848 1177.66 51.128C1177.32 51.3987 1177.16 51.7813 1177.16 52.276C1177.16 52.6307 1177.25 52.92 1177.45 53.144C1177.66 53.368 1177.9 53.5407 1178.19 53.662C1178.49 53.774 1178.91 53.9047 1179.44 54.054C1180.08 54.2313 1180.6 54.4087 1180.99 54.586C1181.38 54.754 1181.72 55.02 1182 55.384C1182.28 55.7387 1182.42 56.224 1182.42 56.84C1182.42 57.316 1182.29 57.764 1182.04 58.184C1181.79 58.604 1181.42 58.9447 1180.92 59.206C1180.43 59.4673 1179.84 59.598 1179.17 59.598ZM1191.1 51.828V59.5H1189.82V58.366C1189.58 58.758 1189.24 59.066 1188.8 59.29C1188.37 59.5047 1187.9 59.612 1187.37 59.612C1186.78 59.612 1186.24 59.4907 1185.76 59.248C1185.29 58.996 1184.91 58.6227 1184.63 58.128C1184.36 57.6333 1184.22 57.0313 1184.22 56.322V51.828H1185.48V56.154C1185.48 56.91 1185.68 57.4933 1186.06 57.904C1186.44 58.3053 1186.96 58.506 1187.63 58.506C1188.31 58.506 1188.84 58.296 1189.24 57.876C1189.63 57.456 1189.82 56.8447 1189.82 56.042V51.828H1191.1ZM1194.52 53.242C1194.78 52.8033 1195.15 52.4393 1195.64 52.15C1196.15 51.8513 1196.73 51.702 1197.39 51.702C1198.08 51.702 1198.69 51.8653 1199.24 52.192C1199.8 52.5187 1200.24 52.9807 1200.56 53.578C1200.88 54.166 1201.03 54.852 1201.03 55.636C1201.03 56.4107 1200.88 57.1013 1200.56 57.708C1200.24 58.3147 1199.8 58.786 1199.24 59.122C1198.69 59.458 1198.08 59.626 1197.39 59.626C1196.74 59.626 1196.16 59.4813 1195.66 59.192C1195.16 58.8933 1194.79 58.5247 1194.52 58.086V63.14H1193.25V51.828H1194.52V53.242ZM1199.73 55.636C1199.73 55.0573 1199.62 54.5533 1199.38 54.124C1199.15 53.6947 1198.83 53.368 1198.43 53.144C1198.04 52.92 1197.6 52.808 1197.13 52.808C1196.66 52.808 1196.23 52.9247 1195.83 53.158C1195.43 53.382 1195.12 53.7133 1194.87 54.152C1194.64 54.5813 1194.52 55.0807 1194.52 55.65C1194.52 56.2287 1194.64 56.7373 1194.87 57.176C1195.12 57.6053 1195.43 57.9367 1195.83 58.17C1196.23 58.394 1196.66 58.506 1197.13 58.506C1197.6 58.506 1198.04 58.394 1198.43 58.17C1198.83 57.9367 1199.15 57.6053 1199.38 57.176C1199.62 56.7373 1199.73 56.224 1199.73 55.636ZM1206.06 59.626C1205.34 59.626 1204.68 59.4627 1204.1 59.136C1203.52 58.8093 1203.06 58.3473 1202.72 57.75C1202.4 57.1433 1202.23 56.4433 1202.23 55.65C1202.23 54.866 1202.4 54.1753 1202.74 53.578C1203.08 52.9713 1203.55 52.5093 1204.14 52.192C1204.73 51.8653 1205.38 51.702 1206.11 51.702C1206.84 51.702 1207.5 51.8653 1208.09 52.192C1208.67 52.5093 1209.14 52.9667 1209.47 53.564C1209.82 54.1613 1209.99 54.8567 1209.99 55.65C1209.99 56.4433 1209.81 57.1433 1209.46 57.75C1209.11 58.3473 1208.64 58.8093 1208.04 59.136C1207.45 59.4627 1206.78 59.626 1206.06 59.626ZM1206.06 58.506C1206.51 58.506 1206.94 58.3987 1207.34 58.184C1207.75 57.9693 1208.07 57.6473 1208.31 57.218C1208.56 56.7887 1208.69 56.266 1208.69 55.65C1208.69 55.034 1208.57 54.5113 1208.32 54.082C1208.08 53.6527 1207.76 53.3353 1207.37 53.13C1206.98 52.9153 1206.56 52.808 1206.1 52.808C1205.63 52.808 1205.2 52.9153 1204.81 53.13C1204.43 53.3353 1204.12 53.6527 1203.89 54.082C1203.65 54.5113 1203.54 55.034 1203.54 55.65C1203.54 56.2753 1203.65 56.8027 1203.87 57.232C1204.11 57.6613 1204.41 57.9833 1204.8 58.198C1205.18 58.4033 1205.6 58.506 1206.06 58.506ZM1212.94 53.074C1213.16 52.6353 1213.48 52.2947 1213.89 52.052C1214.31 51.8093 1214.82 51.688 1215.42 51.688V53.004H1215.08C1213.65 53.004 1212.94 53.7787 1212.94 55.328V59.5H1211.67V51.828H1212.94V53.074ZM1218.44 52.878V57.4C1218.44 57.7733 1218.52 58.0393 1218.68 58.198C1218.84 58.3473 1219.11 58.422 1219.51 58.422H1220.44V59.5H1219.3C1218.59 59.5 1218.06 59.3367 1217.7 59.01C1217.35 58.6833 1217.17 58.1467 1217.17 57.4V52.878H1216.17V51.828H1217.17V49.896H1218.44V51.828H1220.44V52.878H1218.44ZM1228.99 55.37C1228.99 55.6127 1228.97 55.8693 1228.95 56.14H1222.81C1222.86 56.896 1223.12 57.4887 1223.58 57.918C1224.06 58.338 1224.63 58.548 1225.31 58.548C1225.86 58.548 1226.31 58.422 1226.68 58.17C1227.05 57.9087 1227.31 57.5633 1227.46 57.134H1228.83C1228.63 57.8713 1228.22 58.4733 1227.6 58.94C1226.99 59.3973 1226.22 59.626 1225.31 59.626C1224.58 59.626 1223.92 59.4627 1223.35 59.136C1222.78 58.8093 1222.33 58.3473 1222 57.75C1221.68 57.1433 1221.51 56.4433 1221.51 55.65C1221.51 54.8567 1221.67 54.1613 1221.99 53.564C1222.31 52.9667 1222.75 52.5093 1223.32 52.192C1223.9 51.8653 1224.56 51.702 1225.31 51.702C1226.03 51.702 1226.68 51.8607 1227.24 52.178C1227.8 52.4953 1228.23 52.934 1228.53 53.494C1228.83 54.0447 1228.99 54.67 1228.99 55.37ZM1227.67 55.104C1227.67 54.6187 1227.56 54.2033 1227.35 53.858C1227.14 53.5033 1226.84 53.2373 1226.47 53.06C1226.1 52.8733 1225.7 52.78 1225.25 52.78C1224.61 52.78 1224.06 52.9853 1223.6 53.396C1223.15 53.8067 1222.89 54.376 1222.83 55.104H1227.67Z" fill="black"/>
<path d="M1280.6 54.614C1280.6 53.662 1280.82 52.808 1281.25 52.052C1281.68 51.2867 1282.26 50.6893 1283 50.26C1283.74 49.8307 1284.57 49.616 1285.47 49.616C1286.54 49.616 1287.47 49.8727 1288.26 50.386C1289.05 50.8993 1289.63 51.6273 1290 52.57H1288.47C1288.2 51.982 1287.81 51.5293 1287.29 51.212C1286.79 50.8947 1286.18 50.736 1285.47 50.736C1284.79 50.736 1284.18 50.8947 1283.64 51.212C1283.1 51.5293 1282.67 51.982 1282.37 52.57C1282.06 53.1487 1281.9 53.83 1281.9 54.614C1281.9 55.3887 1282.06 56.07 1282.37 56.658C1282.67 57.2367 1283.1 57.6847 1283.64 58.002C1284.18 58.3193 1284.79 58.478 1285.47 58.478C1286.18 58.478 1286.79 58.324 1287.29 58.016C1287.81 57.6987 1288.2 57.246 1288.47 56.658H1290C1289.63 57.5913 1289.05 58.3147 1288.26 58.828C1287.47 59.332 1286.54 59.584 1285.47 59.584C1284.57 59.584 1283.74 59.374 1283 58.954C1282.26 58.5247 1281.68 57.932 1281.25 57.176C1280.82 56.42 1280.6 55.566 1280.6 54.614ZM1295.24 59.626C1294.52 59.626 1293.87 59.4627 1293.28 59.136C1292.7 58.8093 1292.24 58.3473 1291.91 57.75C1291.58 57.1433 1291.42 56.4433 1291.42 55.65C1291.42 54.866 1291.58 54.1753 1291.92 53.578C1292.27 52.9713 1292.73 52.5093 1293.32 52.192C1293.91 51.8653 1294.57 51.702 1295.29 51.702C1296.02 51.702 1296.68 51.8653 1297.27 52.192C1297.86 52.5093 1298.32 52.9667 1298.65 53.564C1299 54.1613 1299.17 54.8567 1299.17 55.65C1299.17 56.4433 1299 57.1433 1298.64 57.75C1298.3 58.3473 1297.82 58.8093 1297.23 59.136C1296.63 59.4627 1295.97 59.626 1295.24 59.626ZM1295.24 58.506C1295.7 58.506 1296.13 58.3987 1296.53 58.184C1296.93 57.9693 1297.25 57.6473 1297.49 57.218C1297.74 56.7887 1297.87 56.266 1297.87 55.65C1297.87 55.034 1297.75 54.5113 1297.51 54.082C1297.26 53.6527 1296.95 53.3353 1296.55 53.13C1296.16 52.9153 1295.74 52.808 1295.28 52.808C1294.81 52.808 1294.38 52.9153 1293.99 53.13C1293.61 53.3353 1293.3 53.6527 1293.07 54.082C1292.84 54.5113 1292.72 55.034 1292.72 55.65C1292.72 56.2753 1292.83 56.8027 1293.05 57.232C1293.29 57.6613 1293.6 57.9833 1293.98 58.198C1294.36 58.4033 1294.78 58.506 1295.24 58.506ZM1304.59 51.688C1305.52 51.688 1306.27 51.9727 1306.85 52.542C1307.43 53.102 1307.72 53.914 1307.72 54.978V59.5H1306.46V55.16C1306.46 54.3947 1306.27 53.8113 1305.89 53.41C1305.5 52.9993 1304.98 52.794 1304.32 52.794C1303.65 52.794 1303.11 53.004 1302.71 53.424C1302.32 53.844 1302.12 54.4553 1302.12 55.258V59.5H1300.85V51.828H1302.12V52.92C1302.37 52.528 1302.71 52.2247 1303.14 52.01C1303.58 51.7953 1304.06 51.688 1304.59 51.688ZM1311.36 52.878V57.4C1311.36 57.7733 1311.44 58.0393 1311.59 58.198C1311.75 58.3473 1312.03 58.422 1312.42 58.422H1313.36V59.5H1312.21C1311.5 59.5 1310.97 59.3367 1310.61 59.01C1310.26 58.6833 1310.08 58.1467 1310.08 57.4V52.878H1309.09V51.828H1310.08V49.896H1311.36V51.828H1313.36V52.878H1311.36ZM1314.43 55.636C1314.43 54.852 1314.58 54.166 1314.9 53.578C1315.22 52.9807 1315.65 52.5187 1316.2 52.192C1316.76 51.8653 1317.38 51.702 1318.07 51.702C1318.74 51.702 1319.32 51.8467 1319.82 52.136C1320.31 52.4253 1320.68 52.7893 1320.92 53.228V51.828H1322.21V59.5H1320.92V58.072C1320.67 58.52 1320.29 58.8933 1319.79 59.192C1319.29 59.4813 1318.71 59.626 1318.05 59.626C1317.37 59.626 1316.75 59.458 1316.2 59.122C1315.65 58.786 1315.22 58.3147 1314.9 57.708C1314.58 57.1013 1314.43 56.4107 1314.43 55.636ZM1320.92 55.65C1320.92 55.0713 1320.81 54.5673 1320.57 54.138C1320.34 53.7087 1320.02 53.382 1319.62 53.158C1319.23 52.9247 1318.79 52.808 1318.32 52.808C1317.84 52.808 1317.41 52.92 1317.02 53.144C1316.62 53.368 1316.31 53.6947 1316.08 54.124C1315.84 54.5533 1315.73 55.0573 1315.73 55.636C1315.73 56.224 1315.84 56.7373 1316.08 57.176C1316.31 57.6053 1316.62 57.9367 1317.02 58.17C1317.41 58.394 1317.84 58.506 1318.32 58.506C1318.79 58.506 1319.23 58.394 1319.62 58.17C1320.02 57.9367 1320.34 57.6053 1320.57 57.176C1320.81 56.7373 1320.92 56.2287 1320.92 55.65ZM1325.92 52.878V57.4C1325.92 57.7733 1326 58.0393 1326.16 58.198C1326.31 58.3473 1326.59 58.422 1326.98 58.422H1327.92V59.5H1326.77C1326.06 59.5 1325.53 59.3367 1325.18 59.01C1324.82 58.6833 1324.64 58.1467 1324.64 57.4V52.878H1323.65V51.828H1324.64V49.896H1325.92V51.828H1327.92V52.878H1325.92ZM1332.81 59.626C1332.09 59.626 1331.44 59.4627 1330.85 59.136C1330.27 58.8093 1329.81 58.3473 1329.48 57.75C1329.15 57.1433 1328.99 56.4433 1328.99 55.65C1328.99 54.866 1329.15 54.1753 1329.49 53.578C1329.84 52.9713 1330.3 52.5093 1330.89 52.192C1331.48 51.8653 1332.14 51.702 1332.86 51.702C1333.59 51.702 1334.25 51.8653 1334.84 52.192C1335.43 52.5093 1335.89 52.9667 1336.22 53.564C1336.57 54.1613 1336.74 54.8567 1336.74 55.65C1336.74 56.4433 1336.57 57.1433 1336.21 57.75C1335.87 58.3473 1335.39 58.8093 1334.8 59.136C1334.2 59.4627 1333.54 59.626 1332.81 59.626ZM1332.81 58.506C1333.27 58.506 1333.7 58.3987 1334.1 58.184C1334.5 57.9693 1334.82 57.6473 1335.06 57.218C1335.31 56.7887 1335.44 56.266 1335.44 55.65C1335.44 55.034 1335.32 54.5113 1335.08 54.082C1334.83 53.6527 1334.52 53.3353 1334.12 53.13C1333.73 52.9153 1333.31 52.808 1332.85 52.808C1332.38 52.808 1331.95 52.9153 1331.56 53.13C1331.18 53.3353 1330.87 53.6527 1330.64 54.082C1330.41 54.5113 1330.29 55.034 1330.29 55.65C1330.29 56.2753 1330.4 56.8027 1330.62 57.232C1330.86 57.6613 1331.17 57.9833 1331.55 58.198C1331.93 58.4033 1332.35 58.506 1332.81 58.506Z" fill="black"/>
</svg>
